{"title":"The Lone Ranger 2013 TS READNFO XViD - JUSTiCE","uid":8665734,"size":1993482689,"categoryP":"video","categoryS":"movies","magnet":"?xt=urn:btih:35b83fdb3722036b67f72287f58ff94c7667304e&amp;dn=The+Lone+Ranger+2013+TS+READNFO+XViD+-+JUSTiCE&amp;tr=udp%3A%2F%2Ftracker.openbittorrent.com%3A80&amp;tr=udp%3A%2F%2Fopen.demonii.com%3A1337&amp;tr=udp%3A%2F%2Ftracker.coppersurfer.tk%3A6969&amp;tr=udp%3A%2F%2Fexodus.desync.com%3A6969","seeders":5,"leechers":0,"uploader":"xxxlavalxxx","files":-1,"time":1373402209,"description":"\n &lt;a href=&quot;\nhttp://www.imdb.com/title/tt1210819/&quot; rel=&quot;nofollow&quot; target=&quot;_NEW&quot;&gt;\nhttp://www.imdb.com/title/tt1210819/&lt;/a&gt;\n\n\n\nNative American warrior Tonto recounts the untold tales that transformed John Reid, a man of the law, into a legend of justice. \n\n\n\nDirector:\n Gore Verbinski \n\nWriters:\n Justin Haythe (screenplay), Ted Elliott (screenplay)\n\nStars:\n Johnny Depp, Armie Hammer, William Fichtner \n\nGenres:\n  Action |  Adventure |  Western \n\nCountry:\n USA \n\nLanguage:\n English \n\n\n\nThe Lone Ranger 2013 TS READNFO XViD - JUSTiCE\n &lt;a href=&quot;\nhttp://www.imdb.com/title/tt1210819/&quot; rel=&quot;nofollow&quot; target=&quot;_NEW&quot;&gt;\nhttp://www.imdb.com/title/tt1210819/&lt;/a&gt;\n\n SOURCE : VIDEO - RAVERS / AUDIO - AFRIEND\n\n\n Video and audio both cleaned and given justice.\n Check sample and see.....\n\n\n Ok video first ...video was really nice Q too be honest,but had wonky borders due to being cammed\n at an angle.Also noticed when in vdub the fast action scenes started to break up...also the contrast\n and brightness levels were off that caused some glare.\n\n Audio ...very nice line audio but due to being FM sourced you sometimes get static or hissing etc..which\n is the case but much better than previous audios eg monster uni etc...\n\n Right so first off dropped the video in vdub and used the quad filter to level up the top and bottom,then \n pulled in the right handside a touch as it was sloping left to right.From there used null to crop the borders.\n After it as a case fixing the contrast and brightness levels and using the intes to lower the glares/bright spots,then \n changed the colouring with rgb eq and reszied it.\n Finally i used a HQ smoother to smooth out the breaks up that happened during the action scenes,whilst also balancing\n out the sharpness so didn't lose too much detail.\n Oh also cut the unwanted video that was left in ;-) ....if ya seen the sors files you'll know....but you don't miss ANY \n of the film still.\n\n Audio was syncd to our rip ....pretty straight forward if honest,then it was dropped in adobe and remastered it changing the\n EQ bands to balance it out better aswell as removing some of the hiss this way before removing the rest of the hiss with a removal\n filter.\n\n Overall ...a vert nice TS indeed IMHO ...V8 A8 M7 :)\n\n DME2 next :)\n\n\n\n Video\n ID                               : 0\n Format                           : MPEG-4 Visual\n Format profile                   : Advanced Simple@L5\n Format settings, BVOP            : 2\n Format settings, QPel            : No\n Format settings, GMC             : No warppoints\n Format settings, Matrix          : Default (MPEG)\n Muxing mode                      : Packed bitstream\n Codec ID                         : XVID\n Codec ID/Hint                    : XviD\n Duration                         : 2h 20mn\n Bit rate                         : 1 675 Kbps\n Width                            : 720 pixels\n Height                           : 336 pixels\n Display aspect ratio             : 2.2:1\n Frame rate                       : 24.000 fps\n Color space                      : YUV\n Chroma subsampling               : 4:2:0\n Bit depth                        : 8 bits\n Scan type                        : Progressive\n Compression mode                 : Lossy\n Bits/(Pixel*Frame)               : 0.289\n Stream size                      : 1.64 GiB (89%)\n Writing library                  : XviD 64\n\n Audio\n ID                               : 1\n Format                           : MPEG Audio\n Format version                   : Version 1\n Format profile                   : Layer 3\n Mode                             : Joint stereo\n Codec ID                         : 55\n Codec ID/Hint                    : MP3\n Duration                         : 2h 20mn\n Bit rate mode                    : Constant\n Bit rate                         : 192 Kbps\n Channel(s)                       : 2 channels\n Sampling rate                    : 48.0 KHz\n Compression mode                 : Lossy\n Stream size                      : 193 MiB (10%)\n Alignment                        : Split accross interleaves\n Interleave, duration             : 42 ms (1.00 video frame)\n Interleave, preload duration     : 500 ms\n\n\n\n\n\n\n    &lt;a href=&quot;\thttp://addpix.net/viewer.php?file=12346979219008563839.jpg&quot; rel=&quot;nofollow&quot; target=&quot;_NEW&quot;&gt;\thttp://addpix.net/viewer.php?file=12346979219008563839.jpg&lt;/a&gt;\n    &lt;a href=&quot;\thttp://addpix.net/viewer.php?file=35352034076947357113.jpg&quot; rel=&quot;nofollow&quot; target=&quot;_NEW&quot;&gt;\thttp://addpix.net/viewer.php?file=35352034076947357113.jpg&lt;/a&gt;\n    &lt;a href=&quot;\thttp://addpix.net/viewer.php?file=50670960846123688622.jpg&quot; rel=&quot;nofollow&quot; target=&quot;_NEW&quot;&gt;\thttp://addpix.net/viewer.php?file=50670960846123688622.jpg&lt;/a&gt;\n    &lt;a href=&quot;\thttp://addpix.net/viewer.php?file=60828897199316554114.jpg&quot; rel=&quot;nofollow&quot; target=&quot;_NEW&quot;&gt;\thttp://addpix.net/viewer.php?file=60828897199316554114.jpg&lt;/a&gt;\n    &lt;a href=&quot;\thttp://addpix.net/viewer.php?file=06633856386349641396.jpg&quot; rel=&quot;nofollow&quot; target=&quot;_NEW&quot;&gt;\thttp://addpix.net/viewer.php?file=06633856386349641396.jpg&lt;/a&gt;","torrent":{"xt":"urn:btih:35b83fdb3722036b67f72287f58ff94c7667304e","amp;dn":"The+Lone+Ranger+2013+TS+READNFO+XViD+-+JUSTiCE","amp;tr":["udp%3A%2F%2Ftracker.openbittorrent.com%3A80","udp%3A%2F%2Fopen.demonii.com%3A1337","udp%3A%2F%2Ftracker.coppersurfer.tk%3A6969","udp%3A%2F%2Fexodus.desync.com%3A6969"],"infoHash":"35b83fdb3722036b67f72287f58ff94c7667304e","infoHashBuffer":{"type":"Buffer","data":[53,184,63,219,55,34,3,107,103,247,34,135,245,143,249,76,118,103,48,78]},"announce":[],"urlList":[]}}